<?xml version="1.0" standalone="no"?>
<!DOCTYPE svg PUBLIC "-//W3C//DTD SVG 20010904//EN"
 "http://www.w3.org/TR/2001/REC-SVG-20010904/DTD/svg10.dtd">
<svg version="1.0" xmlns="http://www.w3.org/2000/svg"
 width="2048.000000pt" height="2048.000000pt" viewBox="0 0 2048.000000 2048.000000"
 preserveAspectRatio="xMidYMid meet">

<g transform="translate(0.000000,2048.000000) scale(0.100000,-0.100000)"
fill="#000000" stroke="none">
<path d="M530 17480 l0 -40 48 0 c205 -2 320 -60 353 -180 16 -59 25 -2175 10
-2353 -12 -142 -34 -191 -107 -233 -55 -33 -94 -42 -211 -50 l-93 -7 0 -38 0
-39 765 0 765 0 0 38 0 38 -113 10 c-123 12 -184 33 -231 80 -62 63 -61 46
-64 647 l-3 548 97 -3 97 -3 480 -677 479 -678 469 0 469 0 0 39 0 39 -52 11
c-94 20 -154 57 -221 136 -51 59 -834 1150 -845 1176 -2 4 34 19 80 34 340
109 533 325 568 634 36 319 -113 608 -395 765 -133 74 -321 117 -603 136 -85
5 -508 10 -948 10 l-794 0 0 -40z m1525 -134 c265 -40 407 -162 472 -406 26
-95 25 -378 -1 -475 -55 -206 -190 -337 -392 -380 -67 -15 -309 -34 -426 -35
l-58 0 0 655 0 655 158 0 c86 0 198 -6 247 -14z"/>
<path d="M10915 17274 c-103 -53 -142 -159 -96 -259 22 -48 54 -79 103 -100
183 -76 349 153 221 306 -53 62 -162 88 -228 53z"/>
<path d="M17955 17185 c-137 -57 -254 -106 -259 -107 -5 -2 -1 -19 8 -37 12
-22 22 -31 33 -27 116 45 188 26 225 -59 17 -40 25 -2111 8 -2190 -22 -101
-71 -143 -180 -152 l-70 -6 0 -33 0 -34 435 0 435 0 0 34 0 33 -74 6 c-107 8
-155 38 -193 122 -17 38 -18 112 -21 1298 l-3 1257 -47 -1 c-36 0 -106 -25
-297 -104z"/>
<path d="M6768 16843 c-58 -133 -89 -196 -127 -251 -98 -144 -209 -252 -333
-322 -50 -27 -58 -36 -58 -61 l0 -29 140 0 140 0 0 -647 c1 -695 4 -754 51
-848 27 -53 80 -105 138 -135 142 -72 316 -33 451 101 51 51 116 156 135 217
6 20 3 22 -28 22 -29 0 -38 -6 -65 -48 -77 -119 -240 -140 -315 -40 -44 59
-47 102 -47 758 l0 620 205 0 205 0 0 65 0 65 -205 0 -205 0 0 290 0 290 -31
0 c-26 0 -33 -6 -51 -47z"/>
<path d="M9788 16843 c-58 -133 -89 -196 -127 -251 -98 -144 -209 -252 -333
-322 -50 -27 -58 -36 -58 -61 l0 -29 140 0 140 0 0 -647 c1 -695 4 -754 51
-848 27 -53 80 -105 138 -135 142 -72 316 -33 451 101 51 51 116 156 135 217
6 20 3 22 -28 22 -29 0 -38 -6 -65 -48 -77 -119 -240 -140 -315 -40 -44 59
-47 102 -47 758 l0 620 205 0 205 0 0 65 0 65 -205 0 -205 0 0 290 0 290 -31
0 c-26 0 -33 -6 -51 -47z"/>
<path d="M4970 16346 c-168 -40 -274 -100 -395 -221 -182 -183 -286 -445 -286
-721 0 -246 77 -458 233 -644 145 -173 320 -257 555 -267 223 -10 408 47 571
178 155 123 289 380 333 635 17 101 7 307 -20 409 -80 296 -314 545 -586 620
-81 23 -329 29 -405 11z m276 -140 c110 -51 190 -136 265 -285 83 -164 120
-352 120 -611 0 -168 -9 -262 -37 -359 -89 -313 -404 -427 -649 -234 -98 76
-207 277 -255 467 -55 217 -61 502 -15 681 64 247 220 382 432 371 60 -3 96
-10 139 -30z"/>
<path d="M8040 16345 c-141 -32 -216 -71 -311 -162 -90 -86 -124 -159 -124
-263 0 -87 19 -128 75 -163 45 -28 130 -28 168 0 59 44 72 77 72 187 0 124 11
166 56 216 103 114 317 117 442 6 60 -53 102 -207 102 -370 l0 -81 -143 -54
c-672 -256 -882 -449 -838 -773 34 -254 229 -408 477 -378 127 15 183 45 397
207 54 41 100 73 101 71 1 -1 7 -36 13 -76 15 -96 48 -153 109 -182 127 -62
318 25 462 213 37 48 42 60 42 108 l0 53 -62 -60 c-78 -76 -105 -94 -139 -94
-42 0 -58 10 -77 44 -15 28 -18 90 -24 611 -3 346 -10 599 -17 627 -24 108
-98 206 -191 253 -106 54 -174 67 -355 71 -124 3 -188 0 -235 -11z m480 -1085
l0 -340 -67 -50 c-160 -119 -306 -164 -406 -126 -57 22 -127 89 -157 151 -34
72 -40 200 -12 273 41 106 148 208 297 282 59 29 320 143 343 149 1 1 2 -152
2 -339z"/>
<path d="M10803 16256 c-139 -56 -255 -105 -258 -108 -3 -2 0 -19 6 -37 8 -24
16 -31 28 -26 9 4 41 12 72 17 49 10 61 8 95 -8 65 -32 75 -66 85 -288 10
-247 10 -811 0 -948 -14 -182 -56 -235 -196 -245 l-75 -6 0 -33 0 -34 430 0
430 0 0 35 c0 34 -1 35 -41 35 -105 0 -182 50 -210 137 -9 28 -13 239 -16 826
l-5 787 -46 0 c-36 -1 -107 -25 -299 -104z"/>
<path d="M12420 16346 c-168 -40 -274 -100 -395 -221 -182 -183 -286 -445
-286 -721 0 -246 77 -458 233 -644 145 -173 320 -257 555 -267 223 -10 408 47
571 178 155 123 289 380 333 635 17 101 7 307 -20 409 -80 296 -314 545 -586
620 -81 23 -329 29 -405 11z m276 -140 c110 -51 190 -136 265 -285 83 -164
120 -352 120 -611 0 -168 -9 -262 -37 -359 -89 -313 -404 -427 -649 -234 -98
76 -207 277 -255 467 -55 217 -61 502 -15 681 64 247 220 382 432 371 60 -3
96 -10 139 -30z"/>
<path d="M13948 16256 c-135 -55 -250 -104 -254 -108 -3 -4 -1 -21 6 -38 9
-22 17 -29 29 -25 9 4 41 11 71 17 79 15 123 -5 153 -69 22 -47 22 -55 25
-612 2 -392 0 -585 -8 -633 -21 -120 -72 -167 -191 -176 l-69 -5 0 -33 0 -34
440 0 440 0 0 34 0 33 -80 6 c-94 6 -132 25 -175 86 l-30 43 -3 567 -3 568 74
69 c85 79 177 137 257 161 64 20 179 22 231 5 74 -25 129 -103 156 -221 18
-81 30 -846 16 -1039 -9 -112 -12 -126 -39 -165 -35 -50 -98 -76 -186 -77
l-58 0 0 -35 0 -35 435 0 435 0 0 35 c0 34 -1 35 -41 35 -106 0 -185 49 -209
132 -9 31 -15 198 -20 618 -8 623 -9 639 -66 753 -90 179 -215 254 -408 245
-162 -8 -274 -68 -453 -243 l-123 -121 0 183 0 183 -52 -1 c-43 -1 -102 -21
-300 -103z"/>
<path d="M16380 16345 c-141 -32 -216 -71 -311 -162 -90 -86 -124 -159 -124
-263 0 -87 19 -128 75 -163 45 -28 130 -28 168 0 59 44 72 77 72 187 0 124 11
166 56 216 103 114 317 117 442 6 60 -53 102 -207 102 -370 l0 -81 -143 -54
c-672 -256 -882 -449 -838 -773 34 -254 229 -408 477 -378 127 15 183 45 397
207 54 41 100 73 101 71 1 -1 7 -36 13 -76 15 -96 48 -153 109 -182 127 -62
318 25 462 213 37 48 42 60 42 108 l0 53 -62 -60 c-78 -76 -105 -94 -139 -94
-42 0 -58 10 -77 44 -15 28 -18 90 -24 611 -3 346 -10 599 -17 627 -24 108
-98 206 -191 253 -106 54 -174 67 -355 71 -124 3 -188 0 -235 -11z m480 -1085
l0 -340 -67 -50 c-160 -119 -306 -164 -406 -126 -57 22 -127 89 -157 151 -34
72 -40 200 -12 273 41 106 148 208 297 282 59 29 320 143 343 149 1 1 2 -152
2 -339z"/>
<path d="M540 12301 l0 -38 103 -6 c59 -3 123 -12 152 -23 65 -23 141 -98 152
-150 4 -22 8 -579 8 -1239 0 -1308 3 -1243 -58 -1311 -55 -64 -146 -94 -282
-94 l-75 0 0 -40 0 -40 1288 0 1289 0 62 448 c35 246 65 459 68 475 5 26 4 27
-34 27 l-40 0 -33 -92 c-35 -102 -97 -230 -143 -297 -47 -69 -157 -180 -220
-223 -152 -103 -316 -153 -557 -169 -85 -6 -204 -7 -265 -4 -177 11 -244 52
-265 166 -6 30 -10 272 -10 575 l0 524 53 0 c82 -1 204 -26 262 -55 106 -51
205 -190 258 -360 22 -71 31 -112 53 -242 5 -31 8 -33 44 -33 l40 0 0 780 0
780 -40 0 c-22 0 -40 -4 -40 -9 0 -5 -9 -60 -19 -123 -36 -207 -104 -361 -199
-450 -87 -81 -190 -118 -334 -118 l-78 0 0 606 0 607 308 -6 c335 -7 410 -16
527 -64 218 -90 334 -238 407 -520 l31 -123 39 0 38 0 0 440 0 440 -1245 0
-1245 0 0 -39z"/>
<path d="M8525 12094 c-103 -53 -142 -159 -96 -259 22 -48 54 -79 103 -100
183 -76 349 153 221 306 -53 62 -162 88 -228 53z"/>
<path d="M18898 11663 c-58 -133 -89 -196 -127 -251 -98 -144 -209 -252 -333
-322 -50 -27 -58 -36 -58 -61 l0 -29 140 0 140 0 0 -647 c1 -695 4 -754 51
-848 27 -53 80 -105 138 -135 142 -72 316 -33 451 101 51 51 116 156 135 217
6 20 3 22 -28 22 -29 0 -38 -6 -65 -48 -77 -119 -240 -140 -315 -40 -44 59
-47 102 -47 758 l0 620 205 0 205 0 0 65 0 65 -205 0 -205 0 0 290 0 290 -31
0 c-26 0 -33 -6 -51 -47z"/>
<path d="M15340 11183 c-210 -16 -428 -130 -547 -284 -89 -116 -144 -240 -179
-399 -27 -121 -27 -422 0 -535 44 -190 120 -330 247 -451 143 -136 278 -194
469 -202 136 -5 217 11 326 63 190 92 391 373 420 590 6 37 3 44 -17 59 -27
19 -39 20 -39 5 0 -22 -82 -175 -121 -225 -50 -65 -136 -126 -219 -155 -78
-27 -236 -32 -315 -10 -97 27 -186 82 -272 168 -70 69 -90 97 -132 185 -27 57
-57 130 -65 163 -17 69 -36 210 -36 272 l0 43 614 0 615 0 -5 58 c-21 250
-117 431 -293 546 -130 85 -285 122 -451 109z m103 -166 c70 -32 145 -101 181
-166 29 -55 56 -161 56 -228 l0 -43 -409 0 -410 0 6 38 c32 210 167 378 340
422 66 16 173 6 236 -23z"/>
<path d="M4800 11174 c-315 -59 -574 -276 -691 -578 -52 -134 -71 -250 -72
-426 -1 -311 80 -522 267 -697 118 -110 242 -163 386 -163 180 0 309 67 493
259 48 50 90 91 92 91 8 0 4 -729 -4 -840 -14 -178 -53 -222 -209 -236 l-72
-7 0 -33 0 -34 445 0 445 0 0 33 0 33 -87 12 c-103 14 -144 37 -176 102 l-22
45 -3 1223 -3 1222 -34 0 c-22 0 -54 -12 -87 -34 -29 -18 -75 -45 -103 -59
l-50 -25 -65 39 c-97 59 -146 72 -295 75 -71 1 -141 0 -155 -2z m230 -148 c65
-24 147 -83 180 -130 61 -90 63 -105 68 -628 l4 -476 -70 -71 c-92 -94 -169
-131 -286 -138 -50 -4 -105 -1 -137 7 -142 33 -278 147 -348 292 -58 121 -73
196 -79 391 -9 319 51 505 208 651 60 55 137 98 207 116 53 13 199 5 253 -14z"/>
<path d="M8413 11076 c-139 -56 -255 -105 -258 -108 -3 -2 0 -19 6 -37 8 -24
16 -31 28 -26 9 4 41 12 72 17 49 10 61 8 95 -8 65 -32 75 -66 85 -288 10
-247 10 -811 0 -948 -14 -182 -56 -235 -196 -245 l-75 -6 0 -33 0 -34 430 0
430 0 0 35 c0 34 -1 35 -41 35 -105 0 -182 50 -210 137 -9 28 -13 239 -16 826
l-5 787 -46 0 c-36 -1 -107 -25 -299 -104z"/>
<path d="M9482 11068 c-251 -102 -272 -113 -266 -132 10 -34 20 -39 59 -26 21
7 62 10 91 8 65 -6 108 -40 127 -103 9 -30 12 -274 12 -1035 0 -547 -4 -1016
-8 -1043 -6 -34 -18 -58 -45 -86 -41 -43 -83 -59 -184 -68 l-68 -6 0 -33 0
-34 460 0 460 0 0 34 0 33 -62 7 c-135 15 -193 50 -218 131 -13 45 -28 745
-15 745 4 0 22 -13 41 -29 56 -50 117 -80 205 -102 110 -28 299 -23 399 11
290 98 501 372 565 735 20 114 21 351 1 460 -58 321 -250 567 -492 629 -79 21
-215 21 -285 0 -137 -40 -266 -147 -376 -311 l-58 -88 -3 208 -2 207 -33 0
c-17 -1 -155 -51 -305 -112z m906 -199 c154 -70 267 -260 308 -520 22 -141 15
-388 -16 -509 -46 -187 -160 -342 -285 -390 -77 -30 -212 -33 -296 -7 -72 22
-164 91 -206 154 -62 94 -64 112 -70 603 l-5 445 101 98 c110 106 174 144 265
156 77 10 134 2 204 -30z"/>
<path d="M11568 11076 c-136 -56 -250 -104 -254 -108 -4 -4 -1 -21 6 -38 9
-22 17 -29 29 -25 9 4 41 11 71 17 44 9 62 8 92 -5 46 -20 66 -57 78 -150 13
-103 13 -1113 -1 -1176 -22 -104 -76 -149 -188 -158 l-71 -6 0 -33 0 -34 440
0 440 0 0 34 0 33 -78 6 c-44 2 -93 12 -110 21 -45 23 -81 75 -92 136 -6 31
-10 272 -10 590 l0 538 55 50 c65 60 183 135 257 165 68 27 204 29 261 3 59
-26 112 -80 140 -144 42 -94 49 -196 45 -732 l-3 -485 -25 -45 c-32 -58 -92
-89 -189 -97 l-71 -6 0 -33 0 -34 445 0 445 0 0 34 0 33 -69 6 c-113 9 -181
52 -200 126 -6 20 -11 281 -12 596 l-2 560 74 63 c152 129 261 176 394 170
170 -7 247 -86 276 -283 13 -92 11 -1023 -2 -1087 -20 -93 -106 -148 -231
-148 l-48 0 0 -35 0 -35 440 0 440 0 0 35 c0 35 -1 35 -42 35 -96 0 -177 43
-206 109 -15 31 -17 111 -23 616 -3 319 -9 591 -13 605 -4 14 -12 45 -18 70
-17 70 -77 178 -130 232 -73 75 -157 110 -277 116 -215 10 -381 -75 -582 -298
l-67 -73 -15 54 c-41 141 -152 258 -283 299 -81 25 -208 27 -285 4 -121 -36
-206 -91 -346 -227 l-133 -130 0 187 0 186 -52 -1 c-43 -1 -101 -21 -300 -103z"/>
<path d="M16568 11076 c-135 -55 -250 -104 -254 -108 -3 -4 -1 -21 6 -38 9
-22 17 -29 29 -25 9 4 41 11 71 17 79 15 123 -5 153 -69 22 -47 22 -55 25
-612 2 -392 0 -585 -8 -633 -21 -120 -72 -167 -191 -176 l-69 -5 0 -33 0 -34
440 0 440 0 0 34 0 33 -80 6 c-94 6 -132 25 -175 86 l-30 43 -3 567 -3 568 74
69 c85 79 177 137 257 161 64 20 179 22 231 5 74 -25 129 -103 156 -221 18
-81 30 -846 16 -1039 -9 -112 -12 -126 -39 -165 -35 -50 -98 -76 -186 -77
l-58 0 0 -35 0 -35 435 0 435 0 0 35 c0 34 -1 35 -41 35 -106 0 -185 49 -209
132 -9 31 -15 198 -20 618 -8 623 -9 639 -66 753 -90 179 -215 254 -408 245
-162 -8 -274 -68 -453 -243 l-123 -121 0 183 0 183 -52 -1 c-43 -1 -102 -21
-300 -103z"/>
<path d="M5962 11098 l3 -33 82 -7 c44 -3 94 -13 111 -22 49 -25 90 -80 96
-128 3 -24 7 -281 10 -573 3 -434 7 -546 20 -620 32 -177 117 -300 253 -367
65 -32 72 -33 183 -33 94 0 126 4 175 23 89 33 184 103 311 228 l114 113 0
-184 0 -185 47 0 c37 0 103 23 306 107 255 105 258 107 252 132 -10 39 -16 42
-60 26 -94 -33 -164 -11 -198 63 -22 47 -22 53 -25 770 l-3 722 -299 0 -300 0
0 -34 0 -33 64 -6 c125 -12 185 -55 205 -147 7 -33 11 -238 11 -585 l0 -534
-77 -68 c-146 -128 -247 -176 -368 -176 -118 0 -213 57 -254 153 -34 80 -40
205 -41 838 l0 592 -311 0 -310 0 3 -32z"/>
<path d="M1490 7224 c-276 -35 -492 -158 -647 -367 -102 -139 -143 -258 -150
-438 -9 -204 26 -338 129 -494 128 -195 334 -348 742 -552 191 -95 354 -185
431 -236 97 -65 187 -164 231 -253 37 -74 39 -83 39 -173 0 -87 -3 -102 -32
-163 -36 -77 -103 -153 -173 -198 -193 -124 -506 -110 -742 31 -266 160 -427
387 -523 734 l-32 120 -42 3 -41 3 0 -565 0 -566 43 0 c40 0 43 2 66 46 46 86
138 140 225 131 28 -3 125 -33 216 -67 193 -73 301 -98 460 -107 249 -13 493
51 681 178 93 62 226 202 281 295 26 44 61 123 79 175 26 79 32 114 37 219 12
312 -102 544 -367 743 -146 110 -257 176 -581 342 -162 83 -320 167 -350 185
-125 76 -242 192 -283 280 -17 35 -21 65 -22 135 0 80 3 97 29 150 56 113 176
203 315 235 79 19 269 8 351 -20 248 -83 471 -298 570 -550 12 -30 32 -95 45
-145 l23 -90 47 -3 48 -3 -6 123 c-4 68 -9 281 -12 473 -3 193 -8 360 -11 373
-3 17 -11 22 -33 22 -27 0 -30 -4 -50 -68 -49 -161 -110 -172 -348 -63 -145
65 -205 86 -299 106 -79 16 -278 27 -344 19z"/>
<path d="M9205 6914 c-103 -53 -142 -159 -96 -259 22 -48 54 -79 103 -100 183
-76 349 153 221 306 -53 62 -162 88 -228 53z"/>
<path d="M16603 6081 c-45 -29 -65 -63 -65 -116 0 -146 190 -185 256 -52 24
50 15 98 -28 144 -42 46 -112 56 -163 24z"/>
<path d="M4300 6003 c-210 -16 -428 -130 -547 -284 -89 -116 -144 -240 -179
-399 -27 -121 -27 -422 0 -535 44 -190 120 -330 247 -451 143 -136 278 -194
469 -202 136 -5 217 11 326 63 190 92 391 373 420 590 6 37 3 44 -17 59 -27
19 -39 20 -39 5 0 -22 -82 -175 -121 -225 -50 -65 -136 -126 -219 -155 -78
-27 -236 -32 -315 -10 -97 27 -186 82 -272 168 -70 69 -90 97 -132 185 -27 57
-57 130 -65 163 -17 69 -36 210 -36 272 l0 43 614 0 615 0 -5 58 c-21 250
-117 431 -293 546 -130 85 -285 122 -451 109z m103 -166 c70 -32 145 -101 181
-166 29 -55 56 -161 56 -228 l0 -43 -409 0 -410 0 6 38 c32 210 167 378 340
422 66 16 173 6 236 -23z"/>
<path d="M12630 6003 c-210 -16 -428 -130 -547 -284 -89 -116 -144 -240 -179
-399 -27 -121 -27 -422 0 -535 44 -190 120 -330 247 -451 143 -136 278 -194
469 -202 136 -5 217 11 326 63 190 92 391 373 420 590 6 37 3 44 -17 59 -27
19 -39 20 -39 5 0 -22 -82 -175 -121 -225 -50 -65 -136 -126 -219 -155 -78
-27 -236 -32 -315 -10 -97 27 -186 82 -272 168 -70 69 -90 97 -132 185 -27 57
-57 130 -65 163 -17 69 -36 210 -36 272 l0 43 614 0 615 0 -5 58 c-21 250
-117 431 -293 546 -130 85 -285 122 -451 109z m103 -166 c70 -32 145 -101 181
-166 29 -55 56 -161 56 -228 l0 -43 -409 0 -410 0 6 38 c32 210 167 378 340
422 66 16 173 6 236 -23z"/>
<path d="M5530 5895 l-255 -104 3 -33 c3 -41 4 -41 38 -27 16 6 57 11 91 12
78 2 111 -19 135 -89 16 -45 17 -105 15 -665 l-2 -616 -29 -37 c-35 -46 -94
-74 -175 -82 l-61 -7 0 -33 0 -34 450 0 450 0 0 34 0 33 -61 6 c-70 6 -159 46
-189 84 -51 66 -54 92 -58 618 l-3 490 53 89 c29 50 79 117 111 149 55 57 59
59 100 55 30 -4 66 -21 124 -61 113 -77 182 -84 254 -25 83 67 77 217 -10 291
-76 64 -207 75 -306 27 -71 -35 -192 -159 -264 -270 l-61 -94 0 197 0 197 -47
-1 c-37 0 -107 -24 -303 -104z"/>
<path d="M9093 5896 c-139 -56 -255 -105 -258 -108 -3 -2 0 -19 6 -37 8 -24
16 -31 28 -26 9 4 41 12 72 17 49 10 61 8 95 -8 65 -32 75 -66 85 -288 10
-247 10 -811 0 -948 -14 -182 -56 -235 -196 -245 l-75 -6 0 -33 0 -34 430 0
430 0 0 35 c0 34 -1 35 -41 35 -105 0 -182 50 -210 137 -9 28 -13 239 -16 826
l-5 787 -46 0 c-36 -1 -107 -25 -299 -104z"/>
<path d="M10694 5985 c-223 -48 -427 -206 -552 -425 -42 -75 -88 -217 -103
-319 -15 -106 -6 -359 16 -461 67 -302 273 -544 534 -626 66 -21 237 -29 313
-15 83 16 228 87 305 151 142 116 254 308 301 518 10 41 9 43 -17 57 l-28 14
-33 -70 c-118 -253 -288 -379 -510 -379 -214 0 -361 103 -477 335 -116 229
-136 559 -50 787 46 120 125 222 213 274 54 32 173 57 233 49 154 -21 210 -78
236 -239 15 -91 29 -132 53 -160 51 -57 199 -76 262 -33 58 39 75 71 75 140
-1 165 -177 340 -401 397 -92 24 -274 26 -370 5z"/>
<path d="M14143 5985 c-228 -64 -373 -250 -374 -481 -1 -251 84 -351 466 -549
258 -134 376 -220 418 -302 8 -15 20 -54 27 -85 45 -221 -164 -378 -415 -313
-203 53 -361 233 -417 474 -11 49 -13 51 -45 51 l-33 0 0 -315 0 -315 28 0
c17 0 38 10 52 25 30 32 71 33 198 1 359 -90 587 -50 773 134 108 107 149 205
149 358 0 158 -81 298 -236 408 -35 25 -175 101 -311 169 -285 142 -351 188
-398 280 -24 48 -30 71 -30 125 0 56 4 73 28 108 93 141 315 175 497 76 100
-54 175 -166 230 -344 26 -81 28 -85 58 -88 l32 -3 0 300 0 301 -33 0 c-26 0
-36 -6 -50 -30 -28 -46 -57 -48 -197 -10 -150 40 -327 50 -417 25z"/>
<path d="M6670 5916 c0 -33 1 -34 58 -45 109 -21 183 -87 241 -216 15 -33 166
-390 336 -792 l309 -733 41 0 41 0 309 748 c169 411 321 774 336 807 54 121
113 178 196 191 41 6 43 8 43 40 l0 34 -285 0 -285 0 0 -35 0 -35 58 0 c106 0
154 -51 135 -143 -14 -65 -446 -1128 -455 -1119 -9 9 -406 953 -429 1021 -51
146 2 241 132 241 l59 0 0 35 0 35 -420 0 -420 0 0 -34z"/>
<path d="M16532 5377 c-149 -62 -172 -74 -170 -92 2 -15 10 -19 28 -18 87 8
112 6 131 -14 34 -33 40 -127 37 -539 -3 -365 -4 -391 -23 -421 -23 -40 -69
-63 -124 -63 -37 0 -41 -2 -41 -25 l0 -25 300 0 300 0 0 24 c0 21 -5 24 -56
29 -60 6 -85 22 -113 72 -14 27 -16 92 -19 588 l-3 557 -37 -1 c-21 0 -110
-31 -210 -72z"/>
<path d="M17288 5377 c-98 -40 -178 -76 -178 -82 0 -29 18 -37 61 -28 72 15
104 1 126 -55 16 -43 18 -84 18 -452 0 -442 -3 -463 -57 -503 -15 -11 -49 -22
-77 -25 -46 -4 -51 -7 -51 -28 l0 -24 305 0 305 0 0 25 c0 23 -4 25 -47 25
-63 0 -114 26 -135 70 -16 32 -18 74 -18 426 l0 392 58 53 c113 103 253 143
342 97 54 -28 84 -77 99 -163 7 -36 11 -209 11 -414 0 -335 -1 -354 -21 -392
-24 -47 -66 -69 -134 -69 -41 0 -45 -2 -45 -25 l0 -25 305 0 305 0 0 24 c0 21
-5 24 -57 29 -74 8 -108 40 -123 116 -6 30 -10 208 -10 406 0 376 -5 435 -48
524 -54 115 -143 171 -271 171 -113 -1 -219 -57 -343 -183 l-68 -68 0 126 0
125 -37 0 c-23 -1 -108 -29 -215 -73z"/>
<path d="M19075 5436 c-212 -53 -382 -238 -431 -466 -25 -116 -15 -329 20
-436 65 -203 233 -356 421 -385 246 -39 481 143 565 435 18 65 18 66 0 76 -17
9 -23 3 -49 -50 -64 -129 -112 -179 -219 -228 -81 -37 -194 -37 -272 -1 -111
52 -207 191 -246 354 -22 93 -22 261 0 344 47 183 153 281 300 281 116 0 178
-48 191 -148 4 -26 11 -61 16 -78 27 -89 158 -120 229 -54 77 72 7 226 -142
314 -90 53 -264 72 -383 42z"/>
<path d="M20092 4420 c-96 -59 -95 -206 1 -257 47 -24 117 -22 155 6 43 30 62
70 62 130 0 39 -6 56 -26 81 -52 61 -130 78 -192 40z"/>
</g>
</svg>
